<svg xmlns="http://www.w3.org/2000/svg" xmlns:xlink="http://www.w3.org/1999/xlink" version="1.1" x="0px" y="0px" viewBox="0 0 100 125" enable-background="new 0 0 100 100" xml:space="preserve"><path fill="#000000" d="M93.208,37H90v26h3.208C94.865,63,96,61.656,96,59.998V40.002C96,38.344,94.865,37,93.208,37z"/><path fill="#000000" d="M11.059,72h69.883C84.833,72,88,68.833,88,64.941V35.059C88,31.167,84.833,28,80.941,28H11.059  C7.167,28,4,31.167,4,35.059v29.883C4,68.833,7.167,72,11.059,72z M8,35.059C8,33.372,9.372,32,11.059,32h69.883  C82.628,32,84,33.372,84,35.059v29.883C84,66.628,82.628,68,80.941,68H11.059C9.372,68,8,66.628,8,64.941V35.059z"/><path fill="#000000" d="M44.24,59.215c0.624,0.54,1.584,0.389,2.012-0.317l3.882-6.401c0.326-0.538,0.984-0.774,1.578-0.568  l9.624,3.344c1.413,0.491,2.439-1.36,1.273-2.298L48.668,41.754c-0.633-0.51-1.572-0.338-1.984,0.362l-3.797,6.445  c-0.338,0.574-1.048,0.81-1.663,0.553l-9.062-3.788c-1.398-0.584-2.533,1.247-1.386,2.238L44.24,59.215z"/><text x="0" y="115" fill="#000000" font-size="5px" font-weight="bold" font-family="'Helvetica Neue', Helvetica, Arial-Unicode, Arial, Sans-serif">Created by Austin Condiff</text><text x="0" y="120" fill="#000000" font-size="5px" font-weight="bold" font-family="'Helvetica Neue', Helvetica, Arial-Unicode, Arial, Sans-serif">from the Noun Project</text></svg>