<svg xmlns="http://www.w3.org/2000/svg" xmlns:xlink="http://www.w3.org/1999/xlink" version="1.1" x="0px" y="0px" viewBox="0 0 100 125" enable-background="new 0 0 100 100" xml:space="preserve"><g><path d="M44.266,58.962c4.267,0,7.739-3.472,7.739-7.739V36.319c0-1.108-0.898-2.006-2.006-2.006s-2.006,0.898-2.006,2.006v14.904   c0,2.055-1.671,3.726-3.726,3.726c-1.108,0-2.006,0.898-2.006,2.006C42.26,58.064,43.158,58.962,44.266,58.962z"/><path d="M27.499,37.759v5.732c0,1.345,1.091,2.436,2.436,2.436s2.436-1.091,2.436-2.436v-5.732c0-1.345-1.091-2.436-2.436-2.436   S27.499,36.414,27.499,37.759z"/><path d="M70.062,45.928c1.345,0,2.436-1.091,2.436-2.436v-5.732c0-1.345-1.091-2.436-2.436-2.436c-1.345,0-2.436,1.091-2.436,2.436   v5.732C67.626,44.837,68.717,45.928,70.062,45.928z"/><path d="M67.185,68.901c-0.708-0.852-1.973-0.969-2.825-0.26c-8.643,7.184-21.19,7.184-29.833,0   c-0.852-0.708-2.117-0.591-2.825,0.26c-0.708,0.852-0.592,2.117,0.261,2.825c5.065,4.21,11.273,6.314,17.482,6.314   c6.208,0,12.417-2.105,17.482-6.314C67.777,71.018,67.894,69.753,67.185,68.901z"/><path d="M7.007,37.675c1.108,0,2.006-0.898,2.006-2.006V25.652c0-9.174,7.464-16.638,16.638-16.638h10.018   c1.108,0,2.006-0.898,2.006-2.006s-0.898-2.006-2.006-2.006H25.651c-11.387,0-20.651,9.264-20.651,20.651v10.017   C5.001,36.777,5.899,37.675,7.007,37.675z"/><path d="M92.993,62.325c-1.108,0-2.006,0.898-2.006,2.006v10.018c0,9.174-7.464,16.638-16.638,16.638H64.331   c-1.108,0-2.006,0.898-2.006,2.006c0,1.108,0.898,2.006,2.006,2.006h10.018c11.387,0,20.651-9.264,20.651-20.651V64.331   C94.999,63.223,94.101,62.325,92.993,62.325z"/><path d="M35.669,90.987H25.651c-9.174,0-16.638-7.464-16.638-16.638V64.331c0-1.108-0.898-2.006-2.006-2.006   s-2.006,0.898-2.006,2.006v10.018c0,11.387,9.264,20.651,20.651,20.651h10.018c1.108,0,2.006-0.898,2.006-2.006   C37.675,91.885,36.777,90.987,35.669,90.987z"/><path d="M74.349,5.001H64.331c-1.108,0-2.006,0.898-2.006,2.006s0.898,2.006,2.006,2.006h10.018   c9.174,0,16.638,7.464,16.638,16.638v10.017c0,1.108,0.898,2.006,2.006,2.006s2.006-0.898,2.006-2.006V25.652   C94.999,14.265,85.735,5.001,74.349,5.001z"/></g></svg>