<svg xmlns="http://www.w3.org/2000/svg" version="1.1" viewBox="-5.0 -10.0 110.0 135.0">
 <path d="m16.293 75h37.25l-9.582 16.668h-0.003907c-11.074-1.6406-21.035-7.6445-27.664-16.668zm6.375-22.582-11.043-19.086c-2.3164 5.2539-3.5234 10.93-3.543 16.668 0.007813 5.3203 1.0117 10.59 2.9609 15.543h19.207zm33.375-44.086-9.625 16.668h37.5c-6.6797-9.0703-16.723-15.078-27.875-16.668zm-29.168 32.207 7.293-12.5v0.003907c0.14062-0.28125 0.30859-0.54688 0.5-0.79297l10.707-18.918c-11.168 1.2227-21.371 6.9023-28.293 15.75l9.582 16.668zm62.207-6.25-19.332 0.003907 7.582 13.25 11.043 19.125c2.3164-5.2539 3.5234-10.93 3.543-16.668-0.007813-5.3203-1.0117-10.59-2.9609-15.543zm-15.707 25-7.293 12.707v0.003906c-0.14062 0.27734-0.30859 0.54297-0.5 0.79297v0.20703l-10.957 18.668c11.168-1.2227 21.371-6.9023 28.293-15.75l-9.582-16.668zm-41.293-9.2891 8.957 15.543h17.918l8.9609-15.543-8.9609-15.543h-17.914z"/>
<text x="0.0" y="117.5" font-size="5.0" font-weight="bold" font-family="Arbeit Regular, Helvetica, Arial-Unicode, Arial, Sans-serif" fill="#000000">Created by Iconic Creations</text><text x="0.0" y="122.5" font-size="5.0" font-weight="bold" font-family="Arbeit Regular, Helvetica, Arial-Unicode, Arial, Sans-serif" fill="#000000">from Noun Project</text></svg>