<svg xmlns="http://www.w3.org/2000/svg" version="1.1" viewBox="-5.0 -10.0 110.0 135.0">
 <path d="m43.301 11.266c-2.4805 0-4.4922 2.0078-4.4961 4.4844-0.003907 0.52344 0.089843 1.043 0.26562 1.5352h-1.8711c-5.8203 0-10.641 4.8203-10.641 10.641v50.168c0 5.8203 4.8203 10.641 10.641 10.641h25.602c5.8203 0 10.641-4.8203 10.641-10.641v-50.168c0-5.8203-4.8203-10.641-10.641-10.641h-1.875c0.17578-0.48828 0.26953-1.0078 0.26953-1.5312-0.007812-2.4805-2.0195-4.4883-4.5-4.4844zm-6.1016 15h25.602c0.99609 0 1.6562 0.66016 1.6562 1.6562l-0.003906 50.172c0 0.99609-0.66016 1.6562-1.6562 1.6562h-25.598c-0.99609 0-1.6562-0.66016-1.6562-1.6562v-50.168c0-0.99609 0.66016-1.6562 1.6562-1.6562zm4.375 8.7656c-1.375 0-2.4805 1.1055-2.4805 2.4805v36.613c0 1.375 1.1055 2.4805 2.4805 2.4805h16.855c1.375 0 2.4805-1.1055 2.4805-2.4805v-36.613c0-1.375-1.1055-2.4805-2.4805-2.4805z"/>
</svg>